HIERARCHY
ROOT root
{
	OFFSET 0.000000 0.000000 0.000000
	CHANNELS 6 Xposition Yposition Zposition Zrotation Yrotation Xrotation
	JOINT lhip
	{
		OFFSET 0.058581 -0.082280 -0.017664
		CHANNELS 3 Zrotation Yrotation Xrotation
		JOINT lknee
		{
			OFFSET 0.043451 -0.386469 0.008037
			CHANNELS 3 Zrotation Yrotation Xrotation
			JOINT lankle
			{
				OFFSET -0.014790 -0.426874 -0.037428
				CHANNELS 3 Zrotation Yrotation Xrotation
				JOINT ltoe
				{
					OFFSET 0.041054 -0.060286 0.122042
					CHANNELS 3 Zrotation Yrotation Xrotation
					End Site
					{
						OFFSET 0.000000 0.000000 0.000000
					}
				}
			}
		}
	}
	JOINT rhip
	{
		OFFSET -0.060310 -0.090513 -0.013543
		CHANNELS 3 Zrotation Yrotation Xrotation
		JOINT rknee
		{
			OFFSET -0.043257 -0.383688 -0.004843
			CHANNELS 3 Zrotation Yrotation Xrotation
			JOINT rankle
			{
				OFFSET 0.019056 -0.420046 -0.034562
				CHANNELS 3 Zrotation Yrotation Xrotation
				JOINT rtoe
				{
					OFFSET -0.034840 -0.062106 0.130323
					CHANNELS 3 Zrotation Yrotation Xrotation
					End Site
					{
						OFFSET 0.000000 0.000000 0.000000
					}
				}
			}
		}
	}
	JOINT lowerback
	{
		OFFSET 0.004439 0.124404 -0.038385
		CHANNELS 3 Zrotation Yrotation Xrotation
		JOINT upperback
		{
			OFFSET 0.004488 0.137956 0.026820
			CHANNELS 3 Zrotation Yrotation Xrotation
			JOINT chest
			{
				OFFSET -0.002265 0.056032 0.002855
				CHANNELS 3 Zrotation Yrotation Xrotation
				JOINT lowerneck
				{
					OFFSET -0.013390 0.211636 -0.033468
					CHANNELS 3 Zrotation Yrotation Xrotation
					JOINT upperneck
					{
						OFFSET 0.010113 0.088937 0.050410
						CHANNELS 3 Zrotation Yrotation Xrotation
						End Site
						{
							OFFSET 0.000000 0.000000 0.000000
						}
					}
				}
				JOINT lclavicle
				{
					OFFSET 0.071702 0.114000 -0.018898
					CHANNELS 3 Zrotation Yrotation Xrotation
					JOINT lshoulder
					{
						OFFSET 0.122921 0.045205 -0.019046
						CHANNELS 3 Zrotation Yrotation Xrotation
						JOINT lelbow
						{
							OFFSET 0.255332 -0.015649 -0.022946
							CHANNELS 3 Zrotation Yrotation Xrotation
							JOINT lwrist
							{
								OFFSET 0.265709 0.012698 -0.007375
								CHANNELS 3 Zrotation Yrotation Xrotation
								End Site
								{
									OFFSET 0.000000 0.000000 0.000000
								}
							}
						}
					}
				}
				JOINT rclavicle
				{
					OFFSET -0.082954 0.112472 -0.023707
					CHANNELS 3 Zrotation Yrotation Xrotation
					JOINT rshoulder
					{
						OFFSET -0.113228 0.046853 -0.008472
						CHANNELS 3 Zrotation Yrotation Xrotation
						JOINT relbow
						{
							OFFSET -0.260127 -0.014369 -0.031269
							CHANNELS 3 Zrotation Yrotation Xrotation
							JOINT rwrist
							{
								OFFSET -0.269108 0.006794 -0.006027
								CHANNELS 3 Zrotation Yrotation Xrotation
								End Site
								{
									OFFSET 0.000000 0.000000 0.000000
								}
							}
						}
					}
				}
			}
		}
	}
}
MOTION
Frames: 11
Frame Time: 0.033333
0.074318 0.241071 0.982478 92.673690 -1.006418 68.649070 5.879370 0.372296 8.280630 -11.717733 -5.576194 34.666255 -0.565048 13.531917 -24.904844 0.000000 -0.000000 0.000000 -9.254658 -4.782944 3.504158 6.342992 -0.886280 39.075796 0.615531 -10.239757 -21.118754 0.000000 -0.000000 0.000000 -2.215767 4.378350 10.550355 3.206218 -6.629007 28.257192 2.206326 0.148304 -0.741425 -8.261941 3.082811 18.355290 4.030457 -1.008419 -21.295789 0.559269 -15.831690 6.953705 -20.932351 -0.476731 -5.968937 9.809046 -48.435163 -13.430419 -24.133691 -21.426913 -33.999149 7.646888 12.856629 7.545748 35.249314 -8.587942 -5.401169 -12.752308 35.511410 -17.618872 44.593619 11.352930 -29.204022 
0.074010 0.239693 0.982748 92.956770 -0.831661 68.798535 6.068878 0.239399 7.991867 -11.745402 -5.903493 34.711364 -0.529131 13.652013 -24.814821 0.000000 -0.000000 0.000000 -9.117793 -5.112950 3.453467 6.383369 -1.105871 38.915607 0.554318 -10.278620 -21.054189 0.000000 -0.000000 0.000000 -2.600990 4.601684 10.564699 3.263140 -6.691451 27.763713 2.318822 0.253017 -0.750025 -8.470811 3.814919 18.476270 4.032535 -1.012505 -21.151194 1.520403 -16.224282 6.680957 -19.662917 -1.097630 -6.705424 10.127021 -48.005024 -14.430851 -23.862549 -20.897563 -34.399985 7.587709 12.961994 7.287419 36.098914 -8.113860 -5.081824 -12.189932 34.179740 -16.375309 45.040479 10.649879 -28.478584 
0.073812 0.238767 0.983141 92.469385 -0.737912 69.007447 6.189848 0.331634 7.810490 -11.558420 -5.896994 34.663705 -0.532984 13.849048 -24.777272 0.000000 -0.000000 0.000000 -9.034515 -5.209178 3.205989 6.626466 -1.092761 38.742529 0.430131 -10.082215 -20.880054 0.000000 -0.000000 0.000000 -2.709126 4.752912 10.342725 3.200288 -6.542174 27.535941 2.251694 0.281594 -0.758819 -8.316863 4.230458 18.572898 3.822596 -0.678830 -20.961139 1.761349 -16.441068 6.586024 -18.546949 -0.953364 -7.118752 9.861197 -47.385455 -14.157370 -24.207163 -21.098895 -33.510892 7.326367 13.215467 7.172384 36.271796 -7.612304 -4.930560 -11.960493 34.210728 -15.952777 44.900310 11.142718 -29.013051 
0.073894 0.238247 0.983811 91.434345 -0.683945 69.117789 6.270753 0.568111 7.947217 -11.205432 -5.654918 34.479950 -0.642957 14.011915 -24.730843 0.000000 -0.000000 0.000000 -8.989223 -5.139539 3.011821 6.948299 -0.892503 38.527149 0.376945 -9.685495 -20.640049 0.000000 -0.000000 0.000000 -2.634498 4.778111 10.172812 3.013501 -6.296888 27.513835 2.161019 0.456612 -0.832460 -8.143911 4.499855 18.651531 3.731556 -0.078343 -21.025609 1.764538 -16.481932 6.437132 -18.246709 -0.440894 -7.272566 9.244175 -46.467853 -14.003605 -24.742102 -20.994925 -32.556481 6.917268 13.678560 7.261584 35.696330 -7.284407 -4.959311 -12.127374 35.510760 -16.276002 44.649968 11.693997 -29.611640 
0.073872 0.237784 0.984352 90.246085 -0.610568 69.301941 6.431290 0.757336 8.105959 -10.929169 -5.221465 34.137800 -0.696973 14.289161 -24.726301 0.000000 -0.000000 0.000000 -8.874320 -4.937010 2.697809 7.291346 -0.665296 38.347725 0.341480 -9.287067 -20.351781 0.000000 -0.000000 0.000000 -2.459557 4.708347 9.804007 2.763799 -5.990770 27.729799 2.018939 0.624984 -1.010163 -7.818036 4.415060 19.028286 3.679846 0.603210 -21.119847 1.315844 -16.464283 6.478473 -18.319676 0.292537 -7.340303 9.242812 -45.443342 -14.193032 -25.830556 -20.721248 -31.248090 6.498109 14.207195 7.442653 34.472144 -6.931619 -5.110214 -12.285861 37.173314 -16.850318 44.665376 12.411000 -30.262515 
0.073742 0.237959 0.984839 89.144314 -0.504323 69.472312 6.533439 1.019481 8.224162 -10.536632 -4.864110 33.880485 -0.733762 14.510907 -24.719881 0.000000 -0.000000 0.000000 -8.693312 -4.885754 2.433887 7.563183 -0.187836 38.106716 0.335085 -8.879952 -20.091775 0.000000 -0.000000 0.000000 -2.113829 4.574858 9.426835 2.512732 -5.725040 28.004174 1.877962 0.649139 -1.187225 -7.602021 3.818676 19.456187 3.637838 1.235755 -21.225311 0.640445 -16.346505 6.562408 -18.754987 0.945050 -7.373725 8.852442 -44.236982 -14.041615 -26.759311 -20.417508 -30.047017 6.094104 14.939608 7.671430 32.723385 -6.520231 -5.420421 -12.773978 38.472026 -17.845692 44.559527 13.112963 -30.478136 
0.073826 0.238358 0.985181 88.169089 -0.379456 69.527195 6.663126 1.296157 8.453027 -10.211665 -4.574795 33.708404 -0.766803 14.722843 -24.786664 0.000000 -0.000000 0.000000 -8.261290 -4.487527 2.253443 7.656040 0.309242 38.020896 0.368366 -9.003617 -19.940325 0.000000 -0.000000 0.000000 -1.788864 4.326668 9.308157 2.360772 -5.422631 27.944758 1.734116 0.686947 -1.137089 -7.393847 3.014290 19.825278 3.705499 1.627912 -21.107857 -0.109774 -16.071096 6.584193 -19.595004 1.380737 -7.325024 8.362394 -43.141814 -12.840171 -27.590984 -19.608693 -28.596098 5.630767 15.423955 7.900635 31.097018 -6.089883 -6.033098 -14.157436 40.066446 -18.956538 44.196742 13.393360 -30.736724 
0.073617 0.238954 0.985686 87.450296 -0.248318 69.490385 6.661300 1.505601 8.661972 -9.746938 -4.306552 33.702546 -0.937823 14.681233 -24.919185 0.000000 -0.000000 0.000000 -7.746889 -4.021318 2.132137 7.418425 0.719621 38.071539 0.341607 -8.916263 -19.708689 0.000000 -0.000000 0.000000 -1.437562 4.113417 9.243696 2.275316 -5.318436 28.206466 1.567236 0.663385 -1.234783 -7.043557 2.283537 20.057946 3.660409 1.759582 -21.122306 -0.968999 -15.999274 6.619928 -20.733520 2.069070 -7.268008 8.321558 -42.343448 -11.246370 -29.142988 -18.758387 -25.736684 5.118928 15.736687 7.895809 29.730543 -5.666503 -7.034023 -16.745185 41.893063 -20.515158 44.052196 13.248492 -30.252230 
0.073089 0.239628 0.986065 86.904173 -0.150086 69.531059 6.453832 1.374235 8.771711 -9.184813 -3.847031 33.618434 -0.915278 14.763989 -24.967599 0.000000 -0.000000 0.000000 -7.284318 -3.559216 1.813612 7.155602 1.003861 38.335103 0.353046 -8.894497 -19.535788 0.000000 -0.000000 0.000000 -1.019442 4.000140 9.055346 2.179694 -5.383927 28.723946 1.319843 0.653824 -1.396019 -6.672783 1.633976 20.278704 3.792480 1.640404 -21.517156 -1.745945 -15.928685 6.447545 -21.937861 2.561508 -7.282652 8.100504 -41.838410 -8.509786 -30.901836 -17.254840 -21.838029 4.599471 15.707062 7.637438 28.969179 -5.295131 -8.280729 -21.034058 44.374463 -22.549332 43.584113 12.278970 -29.165656 
0.072892 0.240268 0.986602 86.722955 -0.090953 69.522768 6.466024 1.728166 8.736297 -8.786191 -3.498332 33.839828 -1.005536 14.342038 -25.052915 0.000000 -0.000000 0.000000 -7.146364 -3.468992 1.733486 6.857368 0.998918 38.477748 0.295889 -8.552249 -19.595783 0.000000 -0.000000 0.000000 -0.647144 3.949972 8.880251 2.065468 -5.594942 29.412872 1.101651 0.473839 -1.733457 -6.223310 1.046893 20.489885 3.696720 1.440485 -21.712399 -2.622412 -15.977669 6.393664 -23.021083 3.434976 -7.363718 8.554514 -42.789638 -3.872506 -32.404897 -14.740804 -15.502905 4.428452 15.673611 7.423450 28.353318 -5.197778 -10.130323 -25.421566 47.180952 -23.923218 42.124221 11.509800 -26.979290 
0.072938 0.240288 0.987139 86.655564 -0.006773 69.511991 6.978932 2.662443 8.595228 -8.736257 -3.458377 34.252500 -1.122156 13.371140 -25.033203 0.000000 -0.000000 0.000000 -7.105625 -3.626655 1.695820 6.581622 0.863939 38.646812 0.169334 -8.042478 -19.729270 0.000000 -0.000000 0.000000 -0.362351 3.874110 8.737969 1.899750 -5.660346 30.086181 0.916378 0.343546 -2.122868 -5.708510 0.640109 20.706472 3.594224 1.086912 -21.786195 -3.411077 -16.029631 6.084817 -23.388521 4.422032 -7.395783 9.156501 -45.910956 3.682643 -34.167547 -9.829774 -4.917592 4.466158 15.878279 7.098952 28.191418 -5.488447 -12.172592 -29.348534 49.524012 -25.220875 40.605624 10.663495 -25.224222 
